<svg xmlns="http://www.w3.org/2000/svg" width="14" height="13" viewBox="0 0 14 13" fill="none">
  <path d="M11.875 3.00001H2.12502C2.0263 3.00029 1.92954 3.02543 1.84515 3.0727C1.76076 3.11997 1.69193 3.18759 1.64608 3.26828C1.60022 3.34898 1.57908 3.43969 1.58492 3.53065C1.59076 3.62161 1.62336 3.70938 1.67922 3.78451L6.55422 10.2845C6.75626 10.554 7.24268 10.554 7.44526 10.2845L12.3203 3.78451C12.3767 3.70954 12.4098 3.62172 12.4159 3.53061C12.4221 3.4395 12.4011 3.34857 12.3552 3.2677C12.3093 3.18684 12.2403 3.11913 12.1556 3.07194C12.071 3.02474 11.9739 2.99986 11.875 3.00001Z" fill="white"/>
</svg>