<svg width="25" height="27" viewBox="0 0 25 27" fill="none" xmlns="http://www.w3.org/2000/svg">
<path d="M21.5833 24.0834H2.91667V9.41671H21.5833M17.5833 0.083374V2.75004H6.91667V0.083374H4.25V2.75004H2.91667C1.43667 2.75004 0.25 3.93671 0.25 5.41671V24.0834C0.25 24.7906 0.530951 25.4689 1.03105 25.969C1.53115 26.4691 2.20942 26.75 2.91667 26.75H21.5833C22.2906 26.75 22.9689 26.4691 23.469 25.969C23.969 25.4689 24.25 24.7906 24.25 24.0834V5.41671C24.25 4.70946 23.969 4.03119 23.469 3.53109C22.9689 3.03099 22.2906 2.75004 21.5833 2.75004H20.25V0.083374M18.9167 14.75H12.25V21.4167H18.9167V14.75Z" fill="#D61A16"/>
</svg>
