<svg xmlns="http://www.w3.org/2000/svg" width="20" height="21" viewBox="0 0 20 21" fill="none">
  <path d="M10 20.5C8.61667 20.5 7.31667 20.2373 6.1 19.712C4.88333 19.1867 3.825 18.4743 2.925 17.575C2.025 16.675 1.31267 15.6167 0.788 14.4C0.263333 13.1833 0.000666667 11.8833 0 10.5C0 9.11667 0.262667 7.81667 0.788 6.6C1.31333 5.38333 2.02567 4.325 2.925 3.425C3.825 2.525 4.88333 1.81267 6.1 1.288C7.31667 0.763333 8.61667 0.500667 10 0.5C11.3833 0.5 12.6833 0.762667 13.9 1.288C15.1167 1.81333 16.175 2.52567 17.075 3.425C17.975 4.325 18.6877 5.38333 19.213 6.6C19.7383 7.81667 20.0007 9.11667 20 10.5C20 11.8833 19.7373 13.1833 19.212 14.4C18.6867 15.6167 17.9743 16.675 17.075 17.575C16.175 18.475 15.1167 19.1877 13.9 19.713C12.6833 20.2383 11.3833 20.5007 10 20.5ZM10 18.5C12.2333 18.5 14.125 17.725 15.675 16.175C17.225 14.625 18 12.7333 18 10.5C18 10.3833 17.9957 10.2623 17.987 10.137C17.9783 10.0117 17.9743 9.90767 17.975 9.825C17.8917 10.3083 17.6667 10.7083 17.3 11.025C16.9333 11.3417 16.5 11.5 16 11.5H14C13.45 11.5 12.979 11.3043 12.587 10.913C12.195 10.5217 11.9993 10.0507 12 9.5V8.5H8V6.5C8 5.95 8.196 5.479 8.588 5.087C8.98 4.695 9.45067 4.49933 10 4.5H11C11 4.11667 11.1043 3.77933 11.313 3.488C11.5217 3.19667 11.7757 2.959 12.075 2.775C11.7417 2.69167 11.4043 2.625 11.063 2.575C10.7217 2.525 10.3673 2.5 10 2.5C7.76667 2.5 5.875 3.275 4.325 4.825C2.775 6.375 2 8.26667 2 10.5H7C8.1 10.5 9.04167 10.8917 9.825 11.675C10.6083 12.4583 11 13.4 11 14.5V15.5H8V18.25C8.33333 18.3333 8.66267 18.396 8.988 18.438C9.31333 18.48 9.65067 18.5007 10 18.5Z" fill="white"/>
</svg>