<svg width="340" height="167" viewBox="0 0 340 167" fill="none" xmlns="http://www.w3.org/2000/svg">
<g filter="url(#filter0_dddd_247_303)">
<mask id="path-1-outside-1_247_303" maskUnits="userSpaceOnUse" x="38" y="38" width="264" height="91" fill="black">
<rect fill="white" x="38" y="38" width="264" height="91"/>
<path d="M95.5 125.61H95.05C89.59 125.61 85 123.72 81.28 119.94C77.56 116.22 75.7 111.63 75.7 106.17V84.84C72.28 86.64 68.65 87.54 64.81 87.54C63.01 87.54 61.54 86.97 60.4 85.83C59.32 84.69 58.78 83.22 58.78 81.42C58.78 79.62 59.32 78.18 60.4 77.1C61.54 75.96 63.01 75.39 64.81 75.39C67.81 75.39 70.36 74.34 72.46 72.24C74.62 70.08 75.7 67.5 75.7 64.5C75.7 61.5 74.62 58.95 72.46 56.85C70.36 54.75 67.81 53.7 64.81 53.7C61.81 53.7 59.26 54.75 57.16 56.85C55.06 58.95 54.01 61.5 54.01 64.5V99.78C54.01 101.58 53.44 103.05 52.3 104.19C51.16 105.27 49.69 105.81 47.89 105.81C46.09 105.81 44.62 105.27 43.48 104.19C42.4 103.05 41.86 101.58 41.86 99.78V64.5C41.86 58.02 44.05 52.59 48.43 48.21C52.87 43.77 58.33 41.55 64.81 41.55C71.29 41.55 76.75 43.77 81.19 48.21C85.63 52.59 87.85 58.02 87.85 64.5V106.17C87.85 108.21 88.54 109.92 89.92 111.3C91.3 112.74 93.01 113.46 95.05 113.46H95.5C97.3 113.46 98.74 114.03 99.82 115.17C100.96 116.31 101.53 117.78 101.53 119.58C101.53 121.32 100.96 122.76 99.82 123.9C98.68 125.04 97.24 125.61 95.5 125.61ZM133.969 105.99C124.969 105.99 117.349 102.87 111.109 96.63C104.869 90.39 101.749 82.77 101.749 73.77C101.749 64.77 104.869 57.15 111.109 50.91C117.349 44.67 124.969 41.55 133.969 41.55C135.769 41.55 137.239 42.12 138.379 43.26C139.519 44.34 140.089 45.78 140.089 47.58C140.089 49.38 139.519 50.85 138.379 51.99C137.239 53.13 135.769 53.7 133.969 53.7C128.329 53.7 123.559 55.65 119.659 59.55C115.819 63.39 113.899 68.13 113.899 73.77C113.899 79.41 115.819 84.18 119.659 88.08C123.559 91.92 128.329 93.84 133.969 93.84C135.769 93.84 137.239 94.41 138.379 95.55C139.519 96.69 140.089 98.16 140.089 99.96C140.089 101.76 139.519 103.23 138.379 104.37C137.239 105.45 135.769 105.99 133.969 105.99ZM167.315 49.02V60.09C167.315 62.13 166.565 63.87 165.065 65.31C163.625 66.75 161.885 67.47 159.845 67.47C157.805 67.47 156.035 66.75 154.535 65.31C153.095 63.87 152.375 62.13 152.375 60.09V49.02C152.375 46.98 153.095 45.24 154.535 43.8C156.035 42.3 157.805 41.55 159.845 41.55C161.885 41.55 163.625 42.3 165.065 43.8C166.565 45.24 167.315 46.98 167.315 49.02ZM200.024 53.61C198.344 53.61 196.934 54.21 195.794 55.41C194.654 56.55 194.084 57.96 194.084 59.64C194.084 61.26 194.654 62.67 195.794 63.87C196.994 65.01 198.404 65.58 200.024 65.58C201.704 65.58 203.114 65.01 204.254 63.87C205.454 62.73 206.054 61.32 206.054 59.64C206.054 57.96 205.454 56.55 204.254 55.41C203.114 54.21 201.704 53.61 200.024 53.61ZM213.974 71.25C218.054 75.21 220.094 80.04 220.094 85.74C220.094 91.38 218.144 96.15 214.244 100.05C210.404 103.89 205.664 105.81 200.024 105.81C194.384 105.81 189.614 103.89 185.714 100.05C181.874 96.15 179.954 91.38 179.954 85.74C179.954 80.04 181.994 75.21 186.074 71.25C183.314 67.89 181.934 64.02 181.934 59.64C181.934 54.54 183.674 50.25 187.154 46.77C190.634 43.23 194.924 41.46 200.024 41.46C205.184 41.46 209.504 43.2 212.984 46.68C216.464 50.16 218.204 54.48 218.204 59.64C218.204 64.02 216.794 67.89 213.974 71.25ZM200.024 77.73C197.804 77.73 195.914 78.51 194.354 80.07C192.854 81.63 192.104 83.52 192.104 85.74C192.104 87.9 192.884 89.76 194.444 91.32C196.004 92.88 197.864 93.66 200.024 93.66C202.244 93.66 204.104 92.91 205.604 91.41C207.164 89.85 207.944 87.96 207.944 85.74C207.944 83.52 207.164 81.63 205.604 80.07C204.104 78.51 202.244 77.73 200.024 77.73ZM266.262 41.55C275.262 41.55 282.882 44.67 289.122 50.91C295.362 57.15 298.482 64.77 298.482 73.77C298.482 82.77 295.362 90.39 289.122 96.63C282.882 102.87 275.262 105.99 266.262 105.99C257.262 105.99 249.642 102.87 243.402 96.63C237.162 90.39 234.042 82.77 234.042 73.77C234.042 64.77 237.162 57.15 243.402 50.91C249.642 44.67 257.262 41.55 266.262 41.55ZM266.262 53.7C260.562 53.7 255.792 55.62 251.952 59.46C248.112 63.3 246.192 68.07 246.192 73.77C246.192 79.41 248.112 84.18 251.952 88.08C255.852 91.92 260.622 93.84 266.262 93.84C271.902 93.84 276.642 91.92 280.482 88.08C284.382 84.18 286.332 79.41 286.332 73.77C286.332 68.13 284.382 63.39 280.482 59.55C276.642 55.65 271.902 53.7 266.262 53.7Z"/>
</mask>
<path d="M95.5 125.61H95.05C89.59 125.61 85 123.72 81.28 119.94C77.56 116.22 75.7 111.63 75.7 106.17V84.84C72.28 86.64 68.65 87.54 64.81 87.54C63.01 87.54 61.54 86.97 60.4 85.83C59.32 84.69 58.78 83.22 58.78 81.42C58.78 79.62 59.32 78.18 60.4 77.1C61.54 75.96 63.01 75.39 64.81 75.39C67.81 75.39 70.36 74.34 72.46 72.24C74.62 70.08 75.7 67.5 75.7 64.5C75.7 61.5 74.62 58.95 72.46 56.85C70.36 54.75 67.81 53.7 64.81 53.7C61.81 53.7 59.26 54.75 57.16 56.85C55.06 58.95 54.01 61.5 54.01 64.5V99.78C54.01 101.58 53.44 103.05 52.3 104.19C51.16 105.27 49.69 105.81 47.89 105.81C46.09 105.81 44.62 105.27 43.48 104.19C42.4 103.05 41.86 101.58 41.86 99.78V64.5C41.86 58.02 44.05 52.59 48.43 48.21C52.87 43.77 58.33 41.55 64.81 41.55C71.29 41.55 76.75 43.77 81.19 48.21C85.63 52.59 87.85 58.02 87.85 64.5V106.17C87.85 108.21 88.54 109.92 89.92 111.3C91.3 112.74 93.01 113.46 95.05 113.46H95.5C97.3 113.46 98.74 114.03 99.82 115.17C100.96 116.31 101.53 117.78 101.53 119.58C101.53 121.32 100.96 122.76 99.82 123.9C98.68 125.04 97.24 125.61 95.5 125.61ZM133.969 105.99C124.969 105.99 117.349 102.87 111.109 96.63C104.869 90.39 101.749 82.77 101.749 73.77C101.749 64.77 104.869 57.15 111.109 50.91C117.349 44.67 124.969 41.55 133.969 41.55C135.769 41.55 137.239 42.12 138.379 43.26C139.519 44.34 140.089 45.78 140.089 47.58C140.089 49.38 139.519 50.85 138.379 51.99C137.239 53.13 135.769 53.7 133.969 53.7C128.329 53.7 123.559 55.65 119.659 59.55C115.819 63.39 113.899 68.13 113.899 73.77C113.899 79.41 115.819 84.18 119.659 88.08C123.559 91.92 128.329 93.84 133.969 93.84C135.769 93.84 137.239 94.41 138.379 95.55C139.519 96.69 140.089 98.16 140.089 99.96C140.089 101.76 139.519 103.23 138.379 104.37C137.239 105.45 135.769 105.99 133.969 105.99ZM167.315 49.02V60.09C167.315 62.13 166.565 63.87 165.065 65.31C163.625 66.75 161.885 67.47 159.845 67.47C157.805 67.47 156.035 66.75 154.535 65.31C153.095 63.87 152.375 62.13 152.375 60.09V49.02C152.375 46.98 153.095 45.24 154.535 43.8C156.035 42.3 157.805 41.55 159.845 41.55C161.885 41.55 163.625 42.3 165.065 43.8C166.565 45.24 167.315 46.98 167.315 49.02ZM200.024 53.61C198.344 53.61 196.934 54.21 195.794 55.41C194.654 56.55 194.084 57.96 194.084 59.64C194.084 61.26 194.654 62.67 195.794 63.87C196.994 65.01 198.404 65.58 200.024 65.58C201.704 65.58 203.114 65.01 204.254 63.87C205.454 62.73 206.054 61.32 206.054 59.64C206.054 57.96 205.454 56.55 204.254 55.41C203.114 54.21 201.704 53.61 200.024 53.61ZM213.974 71.25C218.054 75.21 220.094 80.04 220.094 85.74C220.094 91.38 218.144 96.15 214.244 100.05C210.404 103.89 205.664 105.81 200.024 105.81C194.384 105.81 189.614 103.89 185.714 100.05C181.874 96.15 179.954 91.38 179.954 85.74C179.954 80.04 181.994 75.21 186.074 71.25C183.314 67.89 181.934 64.02 181.934 59.64C181.934 54.54 183.674 50.25 187.154 46.77C190.634 43.23 194.924 41.46 200.024 41.46C205.184 41.46 209.504 43.2 212.984 46.68C216.464 50.16 218.204 54.48 218.204 59.64C218.204 64.02 216.794 67.89 213.974 71.25ZM200.024 77.73C197.804 77.73 195.914 78.51 194.354 80.07C192.854 81.63 192.104 83.52 192.104 85.74C192.104 87.9 192.884 89.76 194.444 91.32C196.004 92.88 197.864 93.66 200.024 93.66C202.244 93.66 204.104 92.91 205.604 91.41C207.164 89.85 207.944 87.96 207.944 85.74C207.944 83.52 207.164 81.63 205.604 80.07C204.104 78.51 202.244 77.73 200.024 77.73ZM266.262 41.55C275.262 41.55 282.882 44.67 289.122 50.91C295.362 57.15 298.482 64.77 298.482 73.77C298.482 82.77 295.362 90.39 289.122 96.63C282.882 102.87 275.262 105.99 266.262 105.99C257.262 105.99 249.642 102.87 243.402 96.63C237.162 90.39 234.042 82.77 234.042 73.77C234.042 64.77 237.162 57.15 243.402 50.91C249.642 44.67 257.262 41.55 266.262 41.55ZM266.262 53.7C260.562 53.7 255.792 55.62 251.952 59.46C248.112 63.3 246.192 68.07 246.192 73.77C246.192 79.41 248.112 84.18 251.952 88.08C255.852 91.92 260.622 93.84 266.262 93.84C271.902 93.84 276.642 91.92 280.482 88.08C284.382 84.18 286.332 79.41 286.332 73.77C286.332 68.13 284.382 63.39 280.482 59.55C276.642 55.65 271.902 53.7 266.262 53.7Z" fill="#E83E3A"/>
<path d="M81.28 119.94L83.4182 117.836L83.4098 117.827L83.4013 117.819L81.28 119.94ZM75.7 84.84H78.7V79.8709L74.3028 82.1852L75.7 84.84ZM60.4 85.83L58.2221 87.8932L58.25 87.9227L58.2787 87.9513L60.4 85.83ZM60.4 77.1L62.5213 79.2213H62.5213L60.4 77.1ZM72.46 56.85L70.3387 58.9713L70.3536 58.9863L70.3688 59.001L72.46 56.85ZM52.3 104.19L54.3632 106.368L54.3927 106.34L54.4213 106.311L52.3 104.19ZM43.48 104.19L41.3021 106.253L41.3579 106.312L41.4168 106.368L43.48 104.19ZM48.43 48.21L46.3087 46.0887L48.43 48.21ZM81.19 48.21L79.0687 50.3313L79.0759 50.3385L79.0832 50.3457L81.19 48.21ZM89.92 111.3L92.086 109.224L92.0639 109.201L92.0413 109.179L89.92 111.3ZM99.82 115.17L97.6421 117.233L97.67 117.263L97.6987 117.291L99.82 115.17ZM99.82 123.9L97.6987 121.779L99.82 123.9ZM95.5 122.61H95.05V128.61H95.5V122.61ZM95.05 122.61C90.3674 122.61 86.5559 121.024 83.4182 117.836L79.1418 122.044C83.4441 126.416 88.8126 128.61 95.05 128.61V122.61ZM83.4013 117.819C80.2673 114.685 78.7 110.868 78.7 106.17H72.7C72.7 112.392 74.8527 117.755 79.1587 122.061L83.4013 117.819ZM78.7 106.17V84.84H72.7V106.17H78.7ZM74.3028 82.1852C71.3107 83.76 68.1599 84.54 64.81 84.54V90.54C69.1401 90.54 73.2493 89.52 77.0972 87.4948L74.3028 82.1852ZM64.81 84.54C63.7043 84.54 63.0309 84.2182 62.5213 83.7087L58.2787 87.9513C60.0491 89.7218 62.3157 90.54 64.81 90.54V84.54ZM62.5779 83.7668C62.1034 83.266 61.78 82.5732 61.78 81.42H55.78C55.78 83.8667 56.5366 86.114 58.2221 87.8932L62.5779 83.7668ZM61.78 81.42C61.78 80.2628 62.1035 79.6391 62.5213 79.2213L58.2787 74.9787C56.5365 76.7209 55.78 78.9772 55.78 81.42H61.78ZM62.5213 79.2213C63.0309 78.7118 63.7043 78.39 64.81 78.39V72.39C62.3157 72.39 60.0491 73.2082 58.2787 74.9787L62.5213 79.2213ZM64.81 78.39C68.5966 78.39 71.9123 77.0303 74.5813 74.3613L70.3387 70.1187C68.8077 71.6497 67.0234 72.39 64.81 72.39V78.39ZM74.5813 74.3613C77.2924 71.6502 78.7 68.3118 78.7 64.5H72.7C72.7 66.6882 71.9476 68.5098 70.3387 70.1187L74.5813 74.3613ZM78.7 64.5C78.7 60.6859 77.2895 57.3612 74.5512 54.699L70.3688 59.001C71.9505 60.5388 72.7 62.3141 72.7 64.5H78.7ZM74.5813 54.7287C71.9123 52.0597 68.5966 50.7 64.81 50.7V56.7C67.0234 56.7 68.8077 57.4403 70.3387 58.9713L74.5813 54.7287ZM64.81 50.7C61.0234 50.7 57.7077 52.0597 55.0387 54.7287L59.2813 58.9713C60.8123 57.4403 62.5966 56.7 64.81 56.7V50.7ZM55.0387 54.7287C52.3697 57.3977 51.01 60.7134 51.01 64.5H57.01C57.01 62.2866 57.7503 60.5023 59.2813 58.9713L55.0387 54.7287ZM51.01 64.5V99.78H57.01V64.5H51.01ZM51.01 99.78C51.01 100.886 50.6882 101.559 50.1787 102.069L54.4213 106.311C56.1918 104.541 57.01 102.274 57.01 99.78H51.01ZM50.2368 102.012C49.736 102.487 49.0433 102.81 47.89 102.81V108.81C50.3368 108.81 52.584 108.053 54.3632 106.368L50.2368 102.012ZM47.89 102.81C46.7368 102.81 46.044 102.487 45.5432 102.012L41.4168 106.368C43.196 108.053 45.4433 108.81 47.89 108.81V102.81ZM45.6579 102.127C45.1834 101.626 44.86 100.933 44.86 99.78H38.86C38.86 102.227 39.6166 104.474 41.3021 106.253L45.6579 102.127ZM44.86 99.78V64.5H38.86V99.78H44.86ZM44.86 64.5C44.86 58.7748 46.7622 54.1204 50.5513 50.3313L46.3087 46.0887C41.3378 51.0596 38.86 57.2652 38.86 64.5H44.86ZM50.5513 50.3313C54.4089 46.4737 59.0972 44.55 64.81 44.55V38.55C57.5628 38.55 51.3311 41.0663 46.3087 46.0887L50.5513 50.3313ZM64.81 44.55C70.5228 44.55 75.2111 46.4737 79.0687 50.3313L83.3113 46.0887C78.2889 41.0663 72.0572 38.55 64.81 38.55V44.55ZM79.0832 50.3457C82.9273 54.1378 84.85 58.7877 84.85 64.5H90.85C90.85 57.2523 88.3327 51.0421 83.2968 46.0743L79.0832 50.3457ZM84.85 64.5V106.17H90.85V64.5H84.85ZM84.85 106.17C84.85 108.965 85.8283 111.451 87.7987 113.421L92.0413 109.179C91.2517 108.389 90.85 107.454 90.85 106.17H84.85ZM87.754 113.376C89.7143 115.421 92.2133 116.46 95.05 116.46V110.46C93.8067 110.46 92.8857 110.059 92.086 109.224L87.754 113.376ZM95.05 116.46H95.5V110.46H95.05V116.46ZM95.5 116.46C96.6081 116.46 97.2134 116.781 97.6421 117.233L101.998 113.107C100.267 111.279 97.9919 110.46 95.5 110.46V116.46ZM97.6987 117.291C98.2082 117.801 98.53 118.474 98.53 119.58H104.53C104.53 117.086 103.712 114.819 101.941 113.049L97.6987 117.291ZM98.53 119.58C98.53 120.594 98.2287 121.249 97.6987 121.779L101.941 126.021C103.691 124.271 104.53 122.046 104.53 119.58H98.53ZM97.6987 121.779C97.1687 122.309 96.514 122.61 95.5 122.61V128.61C97.966 128.61 100.191 127.771 101.941 126.021L97.6987 121.779ZM111.109 96.63L108.987 98.7513L111.109 96.63ZM111.109 50.91L113.23 53.0313L111.109 50.91ZM138.379 43.26L136.257 45.3813L136.286 45.41L136.315 45.4379L138.379 43.26ZM119.659 59.55L121.78 61.6713L121.78 61.6713L119.659 59.55ZM119.659 88.08L117.521 90.1848L117.537 90.2014L117.554 90.2177L119.659 88.08ZM138.379 104.37L140.442 106.548L140.471 106.52L140.5 106.491L138.379 104.37ZM133.969 102.99C125.747 102.99 118.895 100.174 113.23 94.5087L108.987 98.7513C115.802 105.566 124.191 108.99 133.969 108.99V102.99ZM113.23 94.5087C107.565 88.8437 104.749 81.9921 104.749 73.77H98.7487C98.7487 83.5479 102.172 91.9363 108.987 98.7513L113.23 94.5087ZM104.749 73.77C104.749 65.5479 107.565 58.6963 113.23 53.0313L108.987 48.7887C102.172 55.6037 98.7487 63.9921 98.7487 73.77H104.749ZM113.23 53.0313C118.895 47.3663 125.747 44.55 133.969 44.55V38.55C124.191 38.55 115.802 41.9737 108.987 48.7887L113.23 53.0313ZM133.969 44.55C135.074 44.55 135.748 44.8718 136.257 45.3813L140.5 41.1387C138.73 39.3682 136.463 38.55 133.969 38.55V44.55ZM136.315 45.4379C136.768 45.8666 137.089 46.4719 137.089 47.58H143.089C143.089 45.0881 142.269 42.8134 140.442 41.0821L136.315 45.4379ZM137.089 47.58C137.089 48.6857 136.767 49.3591 136.257 49.8687L140.5 54.1113C142.27 52.3409 143.089 50.0743 143.089 47.58H137.089ZM136.257 49.8687C135.748 50.3782 135.074 50.7 133.969 50.7V56.7C136.463 56.7 138.73 55.8818 140.5 54.1113L136.257 49.8687ZM133.969 50.7C127.553 50.7 122.014 52.952 117.537 57.4287L121.78 61.6713C125.103 58.348 129.104 56.7 133.969 56.7V50.7ZM117.537 57.4287C113.111 61.855 110.899 67.3686 110.899 73.77H116.899C116.899 68.8914 118.526 64.9249 121.78 61.6713L117.537 57.4287ZM110.899 73.77C110.899 80.1708 113.11 85.7048 117.521 90.1848L121.796 85.9752C118.527 82.6552 116.899 78.6492 116.899 73.77H110.899ZM117.554 90.2177C122.034 94.6288 127.568 96.84 133.969 96.84V90.84C129.089 90.84 125.083 89.2112 121.763 85.9423L117.554 90.2177ZM133.969 96.84C135.074 96.84 135.748 97.1618 136.257 97.6713L140.5 93.4287C138.73 91.6582 136.463 90.84 133.969 90.84V96.84ZM136.257 97.6713C136.767 98.1809 137.089 98.8543 137.089 99.96H143.089C143.089 97.4657 142.27 95.1991 140.5 93.4287L136.257 97.6713ZM137.089 99.96C137.089 101.066 136.767 101.739 136.257 102.249L140.5 106.491C142.27 104.721 143.089 102.454 143.089 99.96H137.089ZM136.315 102.192C135.815 102.667 135.122 102.99 133.969 102.99V108.99C136.415 108.99 138.663 108.233 140.442 106.548L136.315 102.192ZM165.065 65.31L162.987 63.1458L162.965 63.167L162.944 63.1887L165.065 65.31ZM154.535 65.31L152.414 67.4313L152.435 67.453L152.457 67.4742L154.535 65.31ZM154.535 43.8L156.656 45.9213L156.656 45.9213L154.535 43.8ZM165.065 43.8L162.901 45.8776L162.943 45.9218L162.987 45.9642L165.065 43.8ZM164.315 49.02V60.09H170.315V49.02H164.315ZM164.315 60.09C164.315 61.2955 163.911 62.2592 162.987 63.1458L167.143 67.4742C169.219 65.4808 170.315 62.9645 170.315 60.09H164.315ZM162.944 63.1887C162.067 64.065 161.091 64.47 159.845 64.47V70.47C162.679 70.47 165.183 69.435 167.186 67.4313L162.944 63.1887ZM159.845 64.47C158.596 64.47 157.566 64.061 156.613 63.1458L152.457 67.4742C154.504 69.439 157.014 70.47 159.845 70.47V64.47ZM156.656 63.1887C155.78 62.3124 155.375 61.3359 155.375 60.09H149.375C149.375 62.9241 150.41 65.4276 152.414 67.4313L156.656 63.1887ZM155.375 60.09V49.02H149.375V60.09H155.375ZM155.375 49.02C155.375 47.7741 155.78 46.7976 156.656 45.9213L152.414 41.6787C150.41 43.6824 149.375 46.1859 149.375 49.02H155.375ZM156.656 45.9213C157.619 44.9589 158.635 44.55 159.845 44.55V38.55C156.975 38.55 154.451 39.6411 152.414 41.6787L156.656 45.9213ZM159.845 44.55C161.051 44.55 162.014 44.9541 162.901 45.8776L167.229 41.7224C165.236 39.6459 162.72 38.55 159.845 38.55V44.55ZM162.987 45.9642C163.911 46.8508 164.315 47.8145 164.315 49.02H170.315C170.315 46.1455 169.219 43.6292 167.143 41.6358L162.987 45.9642ZM195.794 55.41L197.915 57.5313L197.942 57.5041L197.969 57.4762L195.794 55.41ZM195.794 63.87L193.619 65.9362L193.672 65.992L193.728 66.045L195.794 63.87ZM204.254 63.87L202.188 61.695L202.16 61.7215L202.132 61.7487L204.254 63.87ZM204.254 55.41L202.079 57.4762L202.132 57.532L202.188 57.585L204.254 55.41ZM213.974 71.25L211.676 69.3214L209.882 71.459L211.884 73.4027L213.974 71.25ZM214.244 100.05L216.365 102.171L214.244 100.05ZM185.714 100.05L183.576 102.155L183.592 102.171L183.609 102.188L185.714 100.05ZM186.074 71.25L188.163 73.4027L190.145 71.4795L188.392 69.3458L186.074 71.25ZM187.154 46.77L189.275 48.8913L189.284 48.8823L189.293 48.8731L187.154 46.77ZM212.984 46.68L210.862 48.8013L212.984 46.68ZM194.354 80.07L192.232 77.9487L192.212 77.9695L192.191 77.9907L194.354 80.07ZM205.604 80.07L203.441 82.1493L203.462 82.1705L203.482 82.1913L205.604 80.07ZM200.024 50.61C197.535 50.61 195.335 51.5375 193.619 53.3438L197.969 57.4762C198.533 56.8825 199.152 56.61 200.024 56.61V50.61ZM193.672 53.2887C191.944 55.0171 191.084 57.2017 191.084 59.64H197.084C197.084 58.7183 197.364 58.0829 197.915 57.5313L193.672 53.2887ZM191.084 59.64C191.084 62.0474 191.962 64.1922 193.619 65.9362L197.969 61.8038C197.346 61.1478 197.084 60.4726 197.084 59.64H191.084ZM193.728 66.045C195.472 67.7019 197.616 68.58 200.024 68.58V62.58C199.191 62.58 198.516 62.3181 197.86 61.695L193.728 66.045ZM200.024 68.58C202.462 68.58 204.647 67.7198 206.375 65.9913L202.132 61.7487C201.581 62.3002 200.945 62.58 200.024 62.58V68.58ZM206.32 66.045C208.126 64.3291 209.054 62.1284 209.054 59.64H203.054C203.054 60.5116 202.781 61.1309 202.188 61.695L206.32 66.045ZM209.054 59.64C209.054 57.1516 208.126 54.9509 206.32 53.235L202.188 57.585C202.781 58.1491 203.054 58.7684 203.054 59.64H209.054ZM206.429 53.3438C204.713 51.5375 202.512 50.61 200.024 50.61V56.61C200.895 56.61 201.515 56.8825 202.079 57.4762L206.429 53.3438ZM211.884 73.4027C215.381 76.7962 217.094 80.8489 217.094 85.74H223.094C223.094 79.2311 220.727 73.6238 216.063 69.0973L211.884 73.4027ZM217.094 85.74C217.094 90.6045 215.446 94.6054 212.122 97.9287L216.365 102.171C220.842 97.6946 223.094 92.1555 223.094 85.74H217.094ZM212.122 97.9287C208.869 101.182 204.902 102.81 200.024 102.81V108.81C206.425 108.81 211.939 106.598 216.365 102.171L212.122 97.9287ZM200.024 102.81C195.145 102.81 191.139 101.181 187.819 97.9123L183.609 102.188C188.089 106.599 193.623 108.81 200.024 108.81V102.81ZM187.851 97.9452C184.583 94.6252 182.954 90.6192 182.954 85.74H176.954C176.954 92.1408 179.165 97.6748 183.576 102.155L187.851 97.9452ZM182.954 85.74C182.954 80.8489 184.667 76.7962 188.163 73.4027L183.984 69.0973C179.321 73.6238 176.954 79.2311 176.954 85.74H182.954ZM188.392 69.3458C186.076 66.5267 184.934 63.331 184.934 59.64H178.934C178.934 64.709 180.551 69.2533 183.756 73.1542L188.392 69.3458ZM184.934 59.64C184.934 55.3034 186.38 51.7863 189.275 48.8913L185.032 44.6487C180.967 48.7137 178.934 53.7766 178.934 59.64H184.934ZM189.293 48.8731C192.192 45.9242 195.704 44.46 200.024 44.46V38.46C194.144 38.46 189.075 40.5358 185.014 44.6669L189.293 48.8731ZM200.024 44.46C204.431 44.46 207.975 45.9136 210.862 48.8013L215.105 44.5587C211.033 40.4864 205.936 38.46 200.024 38.46V44.46ZM210.862 48.8013C213.75 51.6891 215.204 55.2327 215.204 59.64H221.204C221.204 53.7273 219.177 48.6309 215.105 44.5587L210.862 48.8013ZM215.204 59.64C215.204 63.3134 214.043 66.5008 211.676 69.3214L216.272 73.1786C219.544 69.2792 221.204 64.7266 221.204 59.64H215.204ZM200.024 74.73C197.014 74.73 194.359 75.8221 192.232 77.9487L196.475 82.1913C197.469 81.1979 198.594 80.73 200.024 80.73V74.73ZM192.191 77.9907C190.139 80.1254 189.104 82.767 189.104 85.74H195.104C195.104 84.273 195.569 83.1346 196.516 82.1493L192.191 77.9907ZM189.104 85.74C189.104 88.7145 190.213 91.3322 192.322 93.4413L196.565 89.1987C195.554 88.1878 195.104 87.0855 195.104 85.74H189.104ZM192.322 93.4413C194.432 95.5504 197.049 96.66 200.024 96.66V90.66C198.678 90.66 197.576 90.2095 196.565 89.1987L192.322 93.4413ZM200.024 96.66C202.998 96.66 205.634 95.6224 207.725 93.5313L203.482 89.2887C202.574 90.1976 201.489 90.66 200.024 90.66V96.66ZM207.725 93.5313C209.852 91.4048 210.944 88.75 210.944 85.74H204.944C204.944 87.17 204.476 88.2952 203.482 89.2887L207.725 93.5313ZM210.944 85.74C210.944 82.73 209.852 80.0752 207.725 77.9487L203.482 82.1913C204.476 83.1848 204.944 84.31 204.944 85.74H210.944ZM207.766 77.9907C205.684 75.8256 203.036 74.73 200.024 74.73V80.73C201.451 80.73 202.523 81.1944 203.441 82.1493L207.766 77.9907ZM289.122 50.91L287 53.0313L289.122 50.91ZM289.122 96.63L287 94.5087L289.122 96.63ZM243.402 96.63L241.28 98.7513L243.402 96.63ZM243.402 50.91L245.523 53.0313L243.402 50.91ZM251.952 59.46L254.073 61.5813L251.952 59.46ZM251.952 88.08L249.814 90.1848L249.83 90.2014L249.847 90.2177L251.952 88.08ZM280.482 88.08L282.603 90.2013L280.482 88.08ZM280.482 59.55L278.344 61.6548L278.36 61.6714L278.377 61.6877L280.482 59.55ZM266.262 44.55C274.484 44.55 281.335 47.3663 287 53.0313L291.243 48.7887C284.428 41.9737 276.04 38.55 266.262 38.55V44.55ZM287 53.0313C292.665 58.6963 295.482 65.5479 295.482 73.77H301.482C301.482 63.9921 298.058 55.6037 291.243 48.7887L287 53.0313ZM295.482 73.77C295.482 81.9921 292.665 88.8437 287 94.5087L291.243 98.7513C298.058 91.9363 301.482 83.5479 301.482 73.77H295.482ZM287 94.5087C281.335 100.174 274.484 102.99 266.262 102.99V108.99C276.04 108.99 284.428 105.566 291.243 98.7513L287 94.5087ZM266.262 102.99C258.04 102.99 251.188 100.174 245.523 94.5087L241.28 98.7513C248.095 105.566 256.484 108.99 266.262 108.99V102.99ZM245.523 94.5087C239.858 88.8437 237.042 81.9921 237.042 73.77H231.042C231.042 83.5479 234.465 91.9363 241.28 98.7513L245.523 94.5087ZM237.042 73.77C237.042 65.5479 239.858 58.6963 245.523 53.0313L241.28 48.7887C234.465 55.6037 231.042 63.9921 231.042 73.77H237.042ZM245.523 53.0313C251.188 47.3663 258.04 44.55 266.262 44.55V38.55C256.484 38.55 248.095 41.9737 241.28 48.7887L245.523 53.0313ZM266.262 50.7C259.81 50.7 254.263 52.9057 249.83 57.3387L254.073 61.5813C257.32 58.3342 261.313 56.7 266.262 56.7V50.7ZM249.83 57.3387C245.397 61.7716 243.192 67.3183 243.192 73.77H249.192C249.192 68.8217 250.826 64.8284 254.073 61.5813L249.83 57.3387ZM243.192 73.77C243.192 80.1708 245.403 85.7048 249.814 90.1848L254.089 85.9752C250.82 82.6552 249.192 78.6492 249.192 73.77H243.192ZM249.847 90.2177C254.327 94.6288 259.861 96.84 266.262 96.84V90.84C261.382 90.84 257.376 89.2112 254.056 85.9423L249.847 90.2177ZM266.262 96.84C272.663 96.84 278.177 94.6277 282.603 90.2013L278.36 85.9587C275.107 89.2123 271.14 90.84 266.262 90.84V96.84ZM282.603 90.2013C287.08 85.7246 289.332 80.1855 289.332 73.77H283.332C283.332 78.6345 281.684 82.6354 278.36 85.9587L282.603 90.2013ZM289.332 73.77C289.332 67.3538 287.078 61.8352 282.586 57.4123L278.377 61.6877C281.685 64.9448 283.332 68.9062 283.332 73.77H289.332ZM282.619 57.4452C278.196 52.9532 272.678 50.7 266.262 50.7V56.7C271.125 56.7 275.087 58.3468 278.344 61.6548L282.619 57.4452Z" fill="#F8CC97" mask="url(#path-1-outside-1_247_303)"/>
</g>
<defs>
<filter id="filter0_dddd_247_303" x="0.859985" y="0.459991" width="338.622" height="166.15" filterUnits="userSpaceOnUse" color-interpolation-filters="sRGB">
<feFlood flood-opacity="0" result="BackgroundImageFix"/>
<feColorMatrix in="SourceAlpha" type="matrix" values="0 0 0 0 0 0 0 0 0 0 0 0 0 0 0 0 0 0 127 0" result="hardAlpha"/>
<feOffset/>
<feGaussianBlur stdDeviation="10.5"/>
<feComposite in2="hardAlpha" operator="out"/>
<feColorMatrix type="matrix" values="0 0 0 0 0.837467 0 0 0 0 0.103625 0 0 0 0 0.0876724 0 0 0 1 0"/>
<feBlend mode="normal" in2="BackgroundImageFix" result="effect1_dropShadow_247_303"/>
<feColorMatrix in="SourceAlpha" type="matrix" values="0 0 0 0 0 0 0 0 0 0 0 0 0 0 0 0 0 0 127 0" result="hardAlpha"/>
<feOffset/>
<feGaussianBlur stdDeviation="4"/>
<feComposite in2="hardAlpha" operator="out"/>
<feColorMatrix type="matrix" values="0 0 0 0 0.837467 0 0 0 0 0.103625 0 0 0 0 0.0876724 0 0 0 1 0"/>
<feBlend mode="normal" in2="effect1_dropShadow_247_303" result="effect2_dropShadow_247_303"/>
<feColorMatrix in="SourceAlpha" type="matrix" values="0 0 0 0 0 0 0 0 0 0 0 0 0 0 0 0 0 0 127 0" result="hardAlpha"/>
<feOffset/>
<feGaussianBlur stdDeviation="1.5"/>
<feComposite in2="hardAlpha" operator="out"/>
<feColorMatrix type="matrix" values="0 0 0 0 0.837467 0 0 0 0 0.103625 0 0 0 0 0.0876724 0 0 0 1 0"/>
<feBlend mode="normal" in2="effect2_dropShadow_247_303" result="effect3_dropShadow_247_303"/>
<feColorMatrix in="SourceAlpha" type="matrix" values="0 0 0 0 0 0 0 0 0 0 0 0 0 0 0 0 0 0 127 0" result="hardAlpha"/>
<feOffset/>
<feGaussianBlur stdDeviation="20.5"/>
<feComposite in2="hardAlpha" operator="out"/>
<feColorMatrix type="matrix" values="0 0 0 0 1 0 0 0 0 0.299858 0 0 0 0 0.284961 0 0 0 1 0"/>
<feBlend mode="normal" in2="effect3_dropShadow_247_303" result="effect4_dropShadow_247_303"/>
<feBlend mode="normal" in="SourceGraphic" in2="effect4_dropShadow_247_303" result="shape"/>
</filter>
</defs>
</svg>
