<svg width="19" height="19" viewBox="0 0 19 19" fill="none" xmlns="http://www.w3.org/2000/svg">
<path d="M0.515625 9.5C0.515625 9.78594 0.629213 10.0602 0.831401 10.2623C1.03359 10.4645 1.30781 10.5781 1.59375 10.5781H8.42188V17.4062C8.42188 17.6922 8.53546 17.9664 8.73765 18.1686C8.93984 18.3708 9.21406 18.4844 9.5 18.4844C9.78594 18.4844 10.0602 18.3708 10.2623 18.1686C10.4645 17.9664 10.5781 17.6922 10.5781 17.4062V10.5781H17.4062C17.6922 10.5781 17.9664 10.4645 18.1686 10.2623C18.3708 10.0602 18.4844 9.78594 18.4844 9.5C18.4844 9.21406 18.3708 8.93984 18.1686 8.73765C17.9664 8.53546 17.6922 8.42188 17.4062 8.42188H10.5781V1.59375C10.5781 1.30781 10.4645 1.03359 10.2623 0.831401C10.0602 0.629213 9.78594 0.515625 9.5 0.515625C9.21406 0.515625 8.93984 0.629213 8.73765 0.831401C8.53546 1.03359 8.42188 1.30781 8.42188 1.59375V8.42188H1.59375C1.30781 8.42188 1.03359 8.53546 0.831401 8.73765C0.629213 8.93984 0.515625 9.21406 0.515625 9.5Z" fill="#D61A16"/>
</svg>
