<svg width="52" height="52" viewBox="0 0 52 52" fill="none" xmlns="http://www.w3.org/2000/svg">
<path d="M50.6985 18.1321L46.0441 13.4777C45.6686 13.1073 45.1679 12.891 44.6408 12.8714C44.1137 12.8519 43.5984 13.0306 43.1965 13.3723C42.576 13.9004 41.7798 14.1761 40.9656 14.1449C40.1514 14.1136 39.3787 13.7776 38.8005 13.2035C38.2267 12.6254 37.8909 11.8529 37.8596 11.039C37.8284 10.225 38.104 9.42902 38.6318 8.80863C38.9734 8.40674 39.1521 7.89143 39.1326 7.3643C39.1131 6.83717 38.8968 6.33649 38.5263 5.96097L33.8678 1.30136C33.4741 0.908429 32.9406 0.687744 32.3843 0.687744C31.8281 0.687744 31.2946 0.908429 30.9009 1.30136L23.4812 8.72004C23.0231 9.17977 22.6776 9.73929 22.4719 10.3548C22.4318 10.4731 22.365 10.5807 22.2766 10.669C22.1883 10.7573 22.0808 10.8241 21.9624 10.8642C21.3467 11.07 20.7871 11.4159 20.3277 11.8746L1.30112 30.9012C0.908185 31.2949 0.6875 31.8284 0.6875 32.3846C0.6875 32.9408 0.908185 33.4743 1.30112 33.868L5.96073 38.5223C6.33624 38.8928 6.83693 39.1091 7.36405 39.1286C7.89118 39.1482 8.4065 38.9695 8.80838 38.6278C9.42736 38.0954 10.2247 37.8166 11.0405 37.8472C11.8564 37.8779 12.6306 38.2157 13.2079 38.793C13.7852 39.3703 14.123 40.1445 14.1536 40.9603C14.1843 41.7762 13.9055 42.5735 13.3731 43.1925C13.0314 43.5944 12.8527 44.1097 12.8723 44.6368C12.8918 45.164 13.1081 45.6646 13.4785 46.0402L18.1329 50.6945C18.5266 51.0874 19.0601 51.3081 19.6163 51.3081C20.1725 51.3081 20.706 51.0874 21.0997 50.6945L40.1263 31.6679C40.5848 31.2087 40.9306 30.6495 41.1367 30.0342C41.1766 29.9155 41.2434 29.8076 41.332 29.7191C41.4205 29.6305 41.5284 29.5636 41.6471 29.5237C42.2623 29.3179 42.8215 28.9725 43.2808 28.5144L50.6995 21.0947C51.091 20.701 51.3107 20.1684 51.3105 19.6132C51.3103 19.058 51.0902 18.5254 50.6985 18.1321ZM26.6126 15.0049C26.4559 15.1617 26.2698 15.286 26.0651 15.3708C25.8603 15.4556 25.6408 15.4993 25.4192 15.4993C25.1975 15.4993 24.9781 15.4556 24.7733 15.3708C24.5686 15.286 24.3825 15.1617 24.2258 15.0049L23.0119 13.791C22.7031 13.4729 22.5319 13.0461 22.5352 12.6029C22.5386 12.1596 22.7162 11.7354 23.0297 11.4221C23.3432 11.1087 23.7674 10.9312 24.2107 10.9281C24.654 10.925 25.0807 11.0964 25.3986 11.4053L26.6126 12.6182C26.7693 12.7749 26.8936 12.9609 26.9785 13.1657C27.0633 13.3704 27.107 13.5899 27.107 13.8115C27.107 14.0332 27.0633 14.2526 26.9785 14.4574C26.8936 14.6622 26.7693 14.8482 26.6126 15.0049ZM31.2532 19.6455C30.9368 19.9618 30.5077 20.1394 30.0603 20.1394C29.613 20.1394 29.1839 19.9618 28.8675 19.6455L27.7073 18.4854C27.5506 18.3287 27.4263 18.1426 27.3415 17.9379C27.2567 17.7331 27.213 17.5136 27.213 17.292C27.213 17.0704 27.2567 16.8509 27.3415 16.6462C27.4263 16.4414 27.5506 16.2553 27.7073 16.0986C28.0238 15.7821 28.4531 15.6043 28.9007 15.6043C29.1223 15.6043 29.3418 15.648 29.5466 15.7328C29.7513 15.8176 29.9374 15.9419 30.0941 16.0986L31.2542 17.2588C31.4115 17.4155 31.5363 17.6017 31.6215 17.8067C31.7067 18.0117 31.7507 18.2315 31.7507 18.4535C31.7508 18.6755 31.7071 18.8954 31.6221 19.1005C31.5371 19.3056 31.4124 19.4919 31.2553 19.6487L31.2532 19.6455ZM35.8938 24.2862C35.7371 24.4429 35.5511 24.5672 35.3463 24.6521C35.1415 24.7369 34.9221 24.7806 34.7004 24.7806C34.4788 24.7806 34.2593 24.7369 34.0546 24.6521C33.8498 24.5672 33.6638 24.4429 33.5071 24.2862L32.3469 23.126C32.0381 22.8079 31.8669 22.3812 31.8703 21.9379C31.8736 21.4946 32.0512 21.0705 32.3647 20.7571C32.6782 20.4437 33.1025 20.2663 33.5458 20.2631C33.989 20.26 34.4157 20.4314 34.7337 20.7403L35.8938 21.9005C36.0515 22.0569 36.1768 22.2429 36.2625 22.4479C36.3481 22.6529 36.3925 22.8727 36.393 23.0949C36.3934 23.317 36.3501 23.5371 36.2653 23.7424C36.1806 23.9477 36.0561 24.1343 35.8991 24.2914L35.8938 24.2862ZM40.5798 28.9837C40.4231 29.1405 40.237 29.2648 40.0323 29.3496C39.8275 29.4345 39.608 29.4781 39.3864 29.4781C39.1648 29.4781 38.9453 29.4345 38.7405 29.3496C38.5358 29.2648 38.3497 29.1405 38.193 28.9837L36.9865 27.7709C36.8264 27.6146 36.6991 27.4281 36.6117 27.2222C36.5244 27.0163 36.4789 26.7951 36.4778 26.5715C36.4768 26.3478 36.5202 26.1262 36.6055 25.9195C36.6909 25.7127 36.8165 25.525 36.975 25.3673C37.1335 25.2095 37.3218 25.0848 37.529 25.0005C37.7361 24.9161 37.9579 24.8738 38.1816 24.876C38.4052 24.8781 38.6262 24.9247 38.8317 25.013C39.0372 25.1014 39.223 25.2296 39.3785 25.3904L40.5861 26.6023C40.7428 26.759 40.867 26.9451 40.9518 27.1499C41.0365 27.3547 41.0801 27.5742 41.08 27.7959C41.0799 28.0175 41.0361 28.2369 40.9512 28.4417C40.8663 28.6464 40.7419 28.8324 40.5851 28.989L40.5798 28.9837Z" fill="white"/>
</svg>
